<svg width="1024" height="1536" viewBox="0 0 1024 1536" fill="none" xmlns="http://www.w3.org/2000/svg">
  <defs>
    <filter id="shadow" x="-30%" y="-30%" width="160%" height="160%">
      <feDropShadow dx="0" dy="18" stdDeviation="20" flood-color="#B5BCC2" flood-opacity="0.36"/>
    </filter>
    <filter id="soft" x="-20%" y="-20%" width="140%" height="140%">
      <feDropShadow dx="0" dy="10" stdDeviation="12" flood-color="#D8DDE0" flood-opacity="0.34"/>
    </filter>
    <radialGradient id="center" cx="50%" cy="50%" r="50%">
      <stop offset="0%" stop-color="#FFD552"/>
      <stop offset="65%" stop-color="#F8B500"/>
      <stop offset="100%" stop-color="#D08B00"/>
    </radialGradient>
    <linearGradient id="stem" x1="0" y1="0" x2="1" y2="1">
      <stop stop-color="#7D9940"/>
      <stop offset="1" stop-color="#5E7F27"/>
    </linearGradient>
    <linearGradient id="petal" x1="0" y1="0" x2="0.7" y2="1">
      <stop stop-color="#FFFDFC"/>
      <stop offset="1" stop-color="#EEE8E7"/>
    </linearGradient>
  </defs>

  <rect width="1024" height="1536" fill="#F6F7F8"/>

  <g opacity="0.72" filter="url(#soft)">
    <path d="M24 270C120 160 164 78 228 12" stroke="url(#stem)" stroke-width="5" stroke-linecap="round"/>
    <path d="M834 118C912 74 972 34 1010 0" stroke="url(#stem)" stroke-width="5" stroke-linecap="round"/>
    <path d="M62 1148C154 1078 220 1016 302 930" stroke="url(#stem)" stroke-width="5" stroke-linecap="round"/>
    <path d="M764 1422C820 1304 904 1216 1006 1128" stroke="url(#stem)" stroke-width="5" stroke-linecap="round"/>
  </g>

  <g transform="translate(335 164)" filter="url(#shadow)">
    <g>
      <ellipse cx="0" cy="-144" rx="30" ry="138" fill="url(#petal)" transform="rotate(-6)"/>
      <ellipse cx="100" cy="-112" rx="30" ry="126" fill="url(#petal)" transform="rotate(22 100 -112)"/>
      <ellipse cx="156" cy="-10" rx="30" ry="132" fill="url(#petal)" transform="rotate(54 156 -10)"/>
      <ellipse cx="134" cy="108" rx="30" ry="132" fill="url(#petal)" transform="rotate(86 134 108)"/>
      <ellipse cx="28" cy="168" rx="30" ry="136" fill="url(#petal)" transform="rotate(122 28 168)"/>
      <ellipse cx="-86" cy="140" rx="30" ry="130" fill="url(#petal)" transform="rotate(154 -86 140)"/>
      <ellipse cx="-150" cy="32" rx="30" ry="128" fill="url(#petal)" transform="rotate(186 -150 32)"/>
      <ellipse cx="-122" cy="-86" rx="30" ry="130" fill="url(#petal)" transform="rotate(214 -122 -86)"/>
      <ellipse cx="-16" cy="-160" rx="30" ry="136" fill="url(#petal)" transform="rotate(244 -16 -160)"/>
    </g>
    <circle cx="0" cy="0" r="84" fill="url(#center)"/>
    <g fill="#F3B600">
      <circle cx="-40" cy="-16" r="8"/><circle cx="-18" cy="-32" r="7"/><circle cx="10" cy="-28" r="8"/><circle cx="32" cy="-12" r="7"/>
      <circle cx="-26" cy="10" r="8"/><circle cx="0" cy="0" r="8"/><circle cx="24" cy="14" r="8"/><circle cx="-10" cy="30" r="8"/>
      <circle cx="18" cy="36" r="7"/><circle cx="-36" cy="28" r="7"/>
    </g>
  </g>

  <g transform="translate(819 430) rotate(18)" filter="url(#shadow)">
    <ellipse cx="0" cy="-108" rx="26" ry="118" fill="url(#petal)"/>
    <ellipse cx="90" cy="-70" rx="26" ry="114" fill="url(#petal)" transform="rotate(32 90 -70)"/>
    <ellipse cx="120" cy="34" rx="26" ry="114" fill="url(#petal)" transform="rotate(70 120 34)"/>
    <ellipse cx="42" cy="126" rx="26" ry="120" fill="url(#petal)" transform="rotate(118 42 126)"/>
    <ellipse cx="-74" cy="118" rx="26" ry="112" fill="url(#petal)" transform="rotate(156 -74 118)"/>
    <ellipse cx="-132" cy="20" rx="26" ry="112" fill="url(#petal)" transform="rotate(194 -132 20)"/>
    <ellipse cx="-98" cy="-82" rx="26" ry="114" fill="url(#petal)" transform="rotate(228 -98 -82)"/>
    <circle cx="0" cy="0" r="70" fill="url(#center)"/>
  </g>

  <g transform="translate(182 812) rotate(-18)" filter="url(#shadow)">
    <ellipse cx="0" cy="-110" rx="28" ry="126" fill="url(#petal)"/>
    <ellipse cx="94" cy="-74" rx="28" ry="124" fill="url(#petal)" transform="rotate(34 94 -74)"/>
    <ellipse cx="126" cy="40" rx="28" ry="126" fill="url(#petal)" transform="rotate(72 126 40)"/>
    <ellipse cx="44" cy="140" rx="28" ry="132" fill="url(#petal)" transform="rotate(116 44 140)"/>
    <ellipse cx="-84" cy="128" rx="28" ry="122" fill="url(#petal)" transform="rotate(156 -84 128)"/>
    <ellipse cx="-142" cy="18" rx="28" ry="124" fill="url(#petal)" transform="rotate(194 -142 18)"/>
    <ellipse cx="-102" cy="-88" rx="28" ry="126" fill="url(#petal)" transform="rotate(230 -102 -88)"/>
    <circle cx="0" cy="0" r="76" fill="url(#center)"/>
  </g>

  <g transform="translate(823 1212) rotate(12)" filter="url(#shadow)">
    <ellipse cx="0" cy="-86" rx="22" ry="98" fill="url(#petal)"/>
    <ellipse cx="74" cy="-58" rx="22" ry="96" fill="url(#petal)" transform="rotate(26 74 -58)"/>
    <ellipse cx="102" cy="22" rx="22" ry="96" fill="url(#petal)" transform="rotate(64 102 22)"/>
    <ellipse cx="38" cy="104" rx="22" ry="100" fill="url(#petal)" transform="rotate(116 38 104)"/>
    <ellipse cx="-62" cy="94" rx="22" ry="96" fill="url(#petal)" transform="rotate(154 -62 94)"/>
    <ellipse cx="-108" cy="18" rx="22" ry="96" fill="url(#petal)" transform="rotate(194 -108 18)"/>
    <ellipse cx="-84" cy="-70" rx="22" ry="98" fill="url(#petal)" transform="rotate(224 -84 -70)"/>
    <circle cx="0" cy="0" r="58" fill="url(#center)"/>
  </g>

  <g transform="translate(294 1360) rotate(-14)" filter="url(#shadow)">
    <ellipse cx="0" cy="-82" rx="20" ry="94" fill="url(#petal)"/>
    <ellipse cx="70" cy="-48" rx="20" ry="92" fill="url(#petal)" transform="rotate(28 70 -48)"/>
    <ellipse cx="94" cy="24" rx="20" ry="90" fill="url(#petal)" transform="rotate(66 94 24)"/>
    <ellipse cx="34" cy="100" rx="20" ry="94" fill="url(#petal)" transform="rotate(114 34 100)"/>
    <ellipse cx="-58" cy="88" rx="20" ry="90" fill="url(#petal)" transform="rotate(152 -58 88)"/>
    <ellipse cx="-98" cy="16" rx="20" ry="90" fill="url(#petal)" transform="rotate(192 -98 16)"/>
    <ellipse cx="-78" cy="-64" rx="20" ry="92" fill="url(#petal)" transform="rotate(224 -78 -64)"/>
    <circle cx="0" cy="0" r="54" fill="url(#center)"/>
  </g>

  <g opacity="0.78" filter="url(#soft)">
    <path d="M38 48C82 100 112 146 142 232" stroke="url(#stem)" stroke-width="4.5" stroke-linecap="round"/>
    <path d="M882 140C920 226 950 292 998 346" stroke="url(#stem)" stroke-width="4.5" stroke-linecap="round"/>
    <path d="M0 556C92 520 152 482 224 418" stroke="url(#stem)" stroke-width="4.5" stroke-linecap="round"/>
    <path d="M756 642C842 686 910 770 1024 846" stroke="url(#stem)" stroke-width="4.5" stroke-linecap="round"/>
    <path d="M222 1112C302 1160 356 1220 398 1320" stroke="url(#stem)" stroke-width="4.5" stroke-linecap="round"/>
    <path d="M604 1310C708 1260 782 1168 848 1040" stroke="url(#stem)" stroke-width="4.5" stroke-linecap="round"/>
  </g>

  <g fill="#FFFFFF" opacity="0.92" filter="url(#soft)">
    <g transform="translate(120 116)">
      <circle cx="0" cy="0" r="10"/><circle cx="22" cy="18" r="8"/><circle cx="-20" cy="24" r="7"/><circle cx="34" cy="44" r="6"/><circle cx="-36" cy="50" r="6"/>
    </g>
    <g transform="translate(896 130)">
      <circle cx="0" cy="0" r="9"/><circle cx="-18" cy="24" r="7"/><circle cx="18" cy="18" r="7"/><circle cx="-34" cy="44" r="6"/><circle cx="38" cy="48" r="6"/>
    </g>
    <g transform="translate(128 544)">
      <circle cx="0" cy="0" r="8"/><circle cx="18" cy="20" r="7"/><circle cx="-18" cy="18" r="7"/><circle cx="36" cy="42" r="5"/><circle cx="-30" cy="44" r="5"/>
    </g>
    <g transform="translate(868 648)">
      <circle cx="0" cy="0" r="9"/><circle cx="-22" cy="18" r="7"/><circle cx="20" cy="22" r="7"/><circle cx="-38" cy="38" r="5"/><circle cx="34" cy="44" r="5"/>
    </g>
    <g transform="translate(202 1084)">
      <circle cx="0" cy="0" r="8"/><circle cx="18" cy="20" r="7"/><circle cx="-18" cy="18" r="7"/><circle cx="36" cy="42" r="5"/><circle cx="-30" cy="44" r="5"/>
    </g>
    <g transform="translate(746 1318)">
      <circle cx="0" cy="0" r="8"/><circle cx="18" cy="18" r="6"/><circle cx="-18" cy="18" r="6"/><circle cx="34" cy="40" r="5"/><circle cx="-28" cy="40" r="5"/>
    </g>
  </g>
</svg>
